<?xml version="1.0" standalone="no"?>
<!DOCTYPE svg PUBLIC "-//W3C//DTD SVG 20010904//EN"
 "http://www.w3.org/TR/2001/REC-SVG-20010904/DTD/svg10.dtd">
<svg version="1.0" xmlns="http://www.w3.org/2000/svg"
 width="250.000000pt" height="250.000000pt" viewBox="0 0 250.000000 250.000000"
 preserveAspectRatio="xMidYMid meet">
<metadata>
Created by potrace 1.14, written by Peter Selinger 2001-2017
</metadata>
<g transform="translate(0.000000,250.000000) scale(0.100000,-0.100000)"
fill="#000000" stroke="none">
<path d="M0 1250 l0 -1250 1250 0 1250 0 0 1250 0 1250 -1250 0 -1250 0 0
-1250z m1870 76 c0 -165 1 -174 20 -179 16 -4 20 -14 20 -46 l0 -41 -90 0 -90
0 0 41 c0 32 4 42 20 46 19 5 20 14 20 133 0 120 -1 129 -20 135 -16 5 -20 15
-20 46 l0 39 70 0 70 0 0 -174z m-1210 79 l0 -85 -55 0 -55 0 0 40 0 40 -71 0
-70 0 3 -42 3 -43 48 -3 c46 -3 47 -4 47 -37 0 -33 -1 -34 -47 -37 l-48 -3 -3
-42 -3 -43 35 0 c36 0 36 0 36 -45 l0 -45 -110 0 -110 0 0 45 c0 38 3 45 20
45 19 0 20 7 20 125 0 118 -1 125 -20 125 -17 0 -20 7 -20 45 l0 45 200 0 200
0 0 -85z m902 13 l3 -43 63 -3 62 -3 0 -39 0 -39 -62 -3 -63 -3 0 -65 c0 -51
3 -65 15 -65 8 0 16 10 18 23 3 19 9 22 48 22 43 0 44 -1 44 -32 0 -75 -64
-124 -145 -111 -60 10 -79 42 -85 141 -5 81 -7 87 -27 90 -19 3 -23 10 -23 42
0 32 4 39 23 42 18 2 23 10 25 46 l3 42 49 0 49 0 3 -42z m-625 -71 c25 -25
28 -35 32 -112 2 -64 6 -85 17 -85 10 0 14 -13 14 -45 l0 -46 -62 3 c-54 3
-63 6 -66 23 -7 45 -12 48 -35 14 -25 -36 -65 -52 -114 -43 -47 9 -65 34 -61
84 4 56 31 76 123 93 58 11 70 16 70 33 0 26 -59 32 -85 9 -13 -12 -28 -14
-59 -9 -46 7 -51 20 -24 61 26 39 68 54 150 50 64 -2 76 -6 100 -30z m284 23
c11 -6 26 -25 33 -43 l14 -32 1 38 1 37 55 0 55 0 0 -65 0 -65 -51 0 c-43 0
-54 4 -71 25 -19 25 -60 33 -84 17 -38 -25 -40 -103 -4 -122 27 -14 71 -12 89
4 13 12 25 12 64 4 55 -13 59 -28 19 -68 -79 -79 -237 -56 -288 42 -19 37 -18
116 4 158 32 64 111 97 163 70z m973 -10 c52 -26 77 -61 84 -116 l5 -44 -39
-2 c-22 -1 -71 0 -110 1 -75 3 -95 -6 -66 -31 28 -24 48 -27 78 -11 24 12 38
13 81 3 47 -10 52 -14 43 -30 -41 -76 -181 -101 -263 -46 -66 44 -87 143 -45
217 41 73 148 100 232 59z"/>
<path d="M822 1200 c-41 -10 -55 -22 -50 -46 5 -30 57 -25 81 9 26 33 14 47
-31 37z"/>
<path d="M2067 1272 c-10 -10 -17 -22 -17 -25 0 -4 27 -7 60 -7 43 0 60 4 60
13 0 38 -74 51 -103 19z"/>
</g>
</svg>
